ply
		format ascii 1.0
		element vertex 678
		property float x
		property float y
		property float z
		property uchar red
		property uchar green
		property uchar blue
		end_header
		209.393051 238.499084 -145.090561 0 0 0
208.398285 238.499084 -145.090561 0 0 0
207.403519 238.499084 -145.090561 0 0 0
206.408737 238.499084 -145.090561 0 0 0
205.413971 238.499084 -145.090561 6 6 5
204.419189 238.499084 -145.090561 46 49 37
203.424423 238.499084 -145.090561 114 121 90
202.429657 238.499084 -145.090561 137 145 108
201.434875 238.499084 -145.090561 139 146 113
200.440109 238.499084 -145.090561 140 147 116
199.445328 238.499084 -145.090561 139 146 116
198.450562 238.499084 -145.090561 140 148 115
197.455780 238.499084 -145.090561 146 155 118
196.461014 238.499084 -145.090561 153 158 125
195.466248 238.499084 -145.090561 152 159 126
194.471466 238.499084 -145.090561 151 157 126
193.476700 238.499084 -145.090561 147 152 123
192.481918 238.499084 -145.090561 143 148 121
191.487152 238.499084 -145.090561 147 153 126
190.492386 238.499084 -145.090561 153 158 129
189.497604 238.499084 -145.090561 151 157 131
-2639.039551 -3338.987061 2031.267944 152 159 134
-2625.112793 -3338.987061 2031.267944 152 158 132
-2611.186035 -3338.987061 2031.267944 147 154 124
205.413971 237.504303 -145.090561 37 39 30
204.419189 237.504303 -145.090561 92 98 74
203.424423 237.504303 -145.090561 130 137 103
202.429657 237.504303 -145.090561 139 145 109
201.434875 237.504303 -145.090561 141 147 114
200.440109 237.504303 -145.090561 144 151 118
199.445328 237.504303 -145.090561 144 150 118
198.450562 237.504303 -145.090561 146 153 119
197.455780 237.504303 -145.090561 151 158 123
196.461014 237.504303 -145.090561 155 159 127
195.466248 237.504303 -145.090561 153 158 126
194.471466 237.504303 -145.090561 150 155 125
193.476700 237.504303 -145.090561 149 154 125
192.481918 237.504303 -145.090561 148 153 126
191.487152 237.504303 -145.090561 150 155 129
190.492386 237.504303 -145.090561 152 157 131
189.497604 237.504303 -145.090561 152 158 133
-2639.039551 -3325.060303 2031.267944 153 159 131
-2625.112793 -3325.060303 2031.267944 151 157 127
-2611.186035 -3325.060303 2031.267944 149 155 123
-2875.795654 -3311.133545 2031.267944 107 112 85
204.419189 236.509537 -145.090561 133 140 106
203.424423 236.509537 -145.090561 140 146 110
202.429657 236.509537 -145.090561 142 147 112
201.434875 236.509537 -145.090561 145 150 118
200.440109 236.509537 -145.090561 151 156 122
199.445328 236.509537 -145.090561 155 158 123
198.450562 236.509537 -145.090561 157 161 127
197.455780 236.509537 -145.090561 155 159 128
196.461014 236.509537 -145.090561 155 158 127
195.466248 236.509537 -145.090561 155 158 127
194.471466 236.509537 -145.090561 155 159 128
193.476700 236.509537 -145.090561 155 159 129
192.481918 236.509537 -145.090561 154 157 130
191.487152 236.509537 -145.090561 154 158 131
190.492386 236.509537 -145.090561 154 161 132
-2652.966553 -3311.133545 2031.267944 152 160 129
-2639.039551 -3311.133545 2031.267944 149 157 124
-2625.112793 -3311.133545 2031.267944 149 154 122
-2611.186035 -3311.133545 2031.267944 150 154 124
-2889.722412 -3297.206787 2031.267944 115 121 91
-2875.795654 -3297.206787 2031.267944 134 140 106
204.419189 235.514771 -145.090561 137 143 107
203.424423 235.514771 -145.090561 141 146 111
202.429657 235.514771 -145.090561 145 149 117
201.434875 235.514771 -145.090561 150 154 123
200.440109 235.514771 -145.090561 156 160 126
199.445328 235.514771 -145.090561 161 164 129
198.450562 235.514771 -145.090561 161 164 131
197.455780 235.514771 -145.090561 157 160 128
196.461014 235.514771 -145.090561 158 160 130
195.466248 235.514771 -145.090561 161 164 132
194.471466 235.514771 -145.090561 162 164 132
193.476700 235.514771 -145.090561 159 161 129
192.481918 235.514771 -145.090561 157 160 129
-2652.966553 -3297.206787 2031.267944 147 153 120
-2639.039551 -3297.206787 2031.267944 147 151 120
-2625.112793 -3297.206787 2031.267944 150 153 125
-2611.186035 -3297.206787 2031.267944 151 155 130
-2917.575928 -3283.279785 2031.267944 83 87 66
-2903.649170 -3283.279785 2031.267944 122 127 96
-2889.722412 -3283.279785 2031.267944 138 144 108
-2875.795654 -3283.279785 2031.267944 138 144 108
-2861.868652 -3283.279785 2031.267944 141 146 109
203.424423 234.519989 -145.090561 146 150 114
202.429657 234.519989 -145.090561 154 157 124
201.434875 234.519989 -145.090561 159 162 128
200.440109 234.519989 -145.090561 161 165 127
199.445328 234.519989 -145.090561 162 166 129
198.450562 234.519989 -145.090561 163 166 132
197.455780 234.519989 -145.090561 162 164 133
196.461014 234.519989 -145.090561 164 167 138
195.466248 234.519989 -145.090561 163 165 135
194.471466 234.519989 -145.090561 157 159 128
-2652.966553 -3283.279785 2031.267944 139 142 112
-2639.039551 -3283.279785 2031.267944 144 147 121
-2625.112793 -3283.279785 2031.267944 150 154 131
-2611.186035 -3283.279785 2031.267944 153 159 136
-2931.502930 -3269.353027 2031.267944 101 107 82
-2917.575928 -3269.353027 2031.267944 128 134 101
-2903.649170 -3269.353027 2031.267944 138 144 108
-2889.722412 -3269.353027 2031.267944 140 145 109
-2875.795654 -3269.353027 2031.267944 143 148 111
-2861.868652 -3269.353027 2031.267944 149 152 115
203.424423 233.525223 -145.090561 156 158 123
202.429657 233.525223 -145.090561 164 167 132
201.434875 233.525223 -145.090561 165 168 132
200.440109 233.525223 -145.090561 162 166 132
199.445328 233.525223 -145.090561 164 168 134
198.450562 233.525223 -145.090561 169 171 139
197.455780 233.525223 -145.090561 169 171 142
196.461014 233.525223 -145.090561 165 167 138
195.466248 233.525223 -145.090561 155 156 127
-2652.966553 -3269.353027 2031.267944 136 138 114
-2639.039551 -3269.353027 2031.267944 142 144 121
-2625.112793 -3269.353027 2031.267944 150 153 130
-2611.186035 -3269.353027 2031.267944 157 159 135
-2931.502930 -3255.426270 2031.267944 129 135 103
-2917.575928 -3255.426270 2031.267944 134 139 105
-2903.649170 -3255.426270 2031.267944 140 145 110
-2889.722412 -3255.426270 2031.267944 146 150 114
-2875.795654 -3255.426270 2031.267944 153 155 119
-2861.868652 -3255.426270 2031.267944 156 158 123
-2847.941895 -3255.426270 2031.267944 162 165 129
202.429657 232.530441 -145.090561 168 170 135
201.434875 232.530441 -145.090561 168 169 137
200.440109 232.530441 -145.090561 167 170 139
199.445328 232.530441 -145.090561 169 173 141
198.450562 232.530441 -145.090561 171 174 143
197.455780 232.530441 -145.090561 168 170 139
196.461014 232.530441 -145.090561 161 163 133
195.466248 232.530441 -145.090561 145 147 124
-2666.893311 -3255.426270 2031.267944 139 144 130
-2652.966553 -3255.426270 2031.267944 137 139 117
-2639.039551 -3255.426270 2031.267944 143 144 118
-2625.112793 -3255.426270 2031.267944 149 149 121
-2611.186035 -3255.426270 2031.267944 154 156 126
-2931.502930 -3241.499512 2031.267944 127 133 100
-2917.575928 -3241.499512 2031.267944 135 140 105
-2903.649170 -3241.499512 2031.267944 147 151 115
-2889.722412 -3241.499512 2031.267944 156 158 122
-2875.795654 -3241.499512 2031.267944 160 161 125
-2861.868652 -3241.499512 2031.267944 163 164 129
-2847.941895 -3241.499512 2031.267944 168 170 134
202.429657 231.535675 -145.090561 172 173 138
201.434875 231.535675 -145.090561 173 173 140
200.440109 231.535675 -145.090561 173 174 141
199.445328 231.535675 -145.090561 175 176 143
198.450562 231.535675 -145.090561 172 174 141
197.455780 231.535675 -145.090561 169 171 141
196.461014 231.535675 -145.090561 170 172 155
195.466248 231.535675 -145.090561 176 179 176
-2680.820068 -3241.499512 2031.267944 211 217 219
-2666.893311 -3241.499512 2031.267944 174 180 174
-2652.966553 -3241.499512 2031.267944 140 143 126
-2639.039551 -3241.499512 2031.267944 140 142 115
-2625.112793 -3241.499512 2031.267944 145 148 118
-2611.186035 -3241.499512 2031.267944 149 154 124
-2931.502930 -3227.572510 2031.267944 130 134 101
-2917.575928 -3227.572510 2031.267944 141 143 110
-2903.649170 -3227.572510 2031.267944 154 155 120
-2889.722412 -3227.572510 2031.267944 161 161 126
-2875.795654 -3227.572510 2031.267944 166 166 130
-2861.868652 -3227.572510 2031.267944 171 172 136
-2847.941895 -3227.572510 2031.267944 174 175 139
-2834.015137 -3227.572510 2031.267944 176 176 141
201.434875 230.540894 -145.090561 178 176 143
200.440109 230.540894 -145.090561 178 177 146
199.445328 230.540894 -145.090561 177 175 147
198.450562 230.540894 -145.090561 178 177 154
197.455780 230.540894 -145.090561 190 188 177
196.461014 230.540894 -145.090561 194 197 196
195.466248 230.540894 -145.090561 183 189 193
-2680.820068 -3227.572510 2031.267944 218 225 227
-2666.893311 -3227.572510 2031.267944 209 214 215
-2652.966553 -3227.572510 2031.267944 171 174 167
-2639.039551 -3227.572510 2031.267944 143 145 129
-2625.112793 -3227.572510 2031.267944 144 145 125
-2611.186035 -3227.572510 2031.267944 146 148 125
-2931.502930 -3213.645752 2031.267944 138 141 108
-2917.575928 -3213.645752 2031.267944 149 150 116
-2903.649170 -3213.645752 2031.267944 159 158 122
-2889.722412 -3213.645752 2031.267944 165 165 128
-2875.795654 -3213.645752 2031.267944 173 172 136
-2861.868652 -3213.645752 2031.267944 180 179 144
-2847.941895 -3213.645752 2031.267944 181 180 146
-2834.015137 -3213.645752 2031.267944 180 178 145
-2820.088379 -3213.645752 2031.267944 180 178 150
200.440109 229.546127 -145.090561 184 183 162
199.445328 229.546127 -145.090561 194 193 181
198.450562 229.546127 -145.090561 205 206 202
197.455780 229.546127 -145.090561 183 188 188
196.461014 229.546127 -145.090561 137 143 145
-2736.527344 -3213.645752 2031.267944 103 110 112
-2694.746826 -3213.645752 2031.267944 221 226 229
-2680.820068 -3213.645752 2031.267944 220 226 229
-2666.893311 -3213.645752 2031.267944 219 224 227
-2652.966553 -3213.645752 2031.267944 206 210 211
-2639.039551 -3213.645752 2031.267944 167 170 165
-2625.112793 -3213.645752 2031.267944 140 141 129
-2611.186035 -3213.645752 2031.267944 141 143 123
-2931.502930 -3199.718994 2031.267944 144 145 113
-2917.575928 -3199.718994 2031.267944 156 155 120
-2903.649170 -3199.718994 2031.267944 163 161 125
-2889.722412 -3199.718994 2031.267944 173 171 135
-2875.795654 -3199.718994 2031.267944 181 177 143
-2861.868652 -3199.718994 2031.267944 185 182 149
-2847.941895 -3199.718994 2031.267944 186 183 152
-2834.015137 -3199.718994 2031.267944 187 184 161
-2820.088379 -3199.718994 2031.267944 192 193 181
-2806.161377 -3199.718994 2031.267944 202 205 202
-2792.234619 -3199.718994 2031.267944 216 220 221
-2778.307861 -3199.718994 2031.267944 216 220 223
-2764.381104 -3199.718994 2031.267944 156 162 163
-2750.454102 -3199.718994 2031.267944 97 102 101
-2736.527344 -3199.718994 2031.267944 112 116 116
-2722.600586 -3199.718994 2031.267944 155 158 163
-2708.673828 -3199.718994 2031.267944 206 211 214
-2694.746826 -3199.718994 2031.267944 221 227 230
-2680.820068 -3199.718994 2031.267944 222 227 230
-2666.893311 -3199.718994 2031.267944 221 226 229
-2652.966553 -3199.718994 2031.267944 219 224 227
-2639.039551 -3199.718994 2031.267944 207 211 213
-2625.112793 -3199.718994 2031.267944 166 170 166
-2611.186035 -3199.718994 2031.267944 135 139 129
-2931.502930 -3185.792236 2031.267944 149 148 116
-2917.575928 -3185.792236 2031.267944 162 159 124
-2903.649170 -3185.792236 2031.267944 171 166 132
-2889.722412 -3185.792236 2031.267944 181 177 145
-2875.795654 -3185.792236 2031.267944 185 182 149
-2861.868652 -3185.792236 2031.267944 190 188 162
-2847.941895 -3185.792236 2031.267944 199 198 183
-2834.015137 -3185.792236 2031.267944 203 205 201
-2820.088379 -3185.792236 2031.267944 176 181 182
-2806.161377 -3185.792236 2031.267944 152 157 161
-2792.234619 -3185.792236 2031.267944 190 194 198
-2778.307861 -3185.792236 2031.267944 200 204 208
-2764.381104 -3185.792236 2031.267944 157 161 164
-2750.454102 -3185.792236 2031.267944 142 145 148
-2736.527344 -3185.792236 2031.267944 190 194 197
-2722.600586 -3185.792236 2031.267944 210 215 218
-2708.673828 -3185.792236 2031.267944 208 213 217
-2694.746826 -3185.792236 2031.267944 200 205 210
-2680.820068 -3185.792236 2031.267944 212 217 221
-2666.893311 -3185.792236 2031.267944 221 226 229
-2652.966553 -3185.792236 2031.267944 220 225 229
-2639.039551 -3185.792236 2031.267944 219 224 228
-2625.112793 -3185.792236 2031.267944 206 210 213
-2611.186035 -3185.792236 2031.267944 159 164 162
-2931.502930 -3171.865234 2031.267944 155 154 122
-2917.575928 -3171.865234 2031.267944 169 165 131
-2903.649170 -3171.865234 2031.267944 178 173 141
-2889.722412 -3171.865234 2031.267944 189 186 160
-2875.795654 -3171.865234 2031.267944 198 197 180
-2861.868652 -3171.865234 2031.267944 197 199 193
-2847.941895 -3171.865234 2031.267944 205 209 210
-2834.015137 -3171.865234 2031.267944 205 209 212
-2820.088379 -3171.865234 2031.267944 140 146 149
-2806.161377 -3171.865234 2031.267944 123 127 131
-2792.234619 -3171.865234 2031.267944 162 165 170
-2778.307861 -3171.865234 2031.267944 133 136 139
-2764.381104 -3171.865234 2031.267944 99 101 104
-2750.454102 -3171.865234 2031.267944 124 126 131
-2736.527344 -3171.865234 2031.267944 179 182 186
-2722.600586 -3171.865234 2031.267944 160 164 168
-2708.673828 -3171.865234 2031.267944 128 133 136
-2666.893311 -3171.865234 2031.267944 212 218 222
-2652.966553 -3171.865234 2031.267944 220 225 229
-2639.039551 -3171.865234 2031.267944 220 225 229
-2625.112793 -3171.865234 2031.267944 218 223 227
-2611.186035 -3171.865234 2031.267944 202 207 210
-2931.502930 -3157.938477 2031.267944 161 158 128
-2917.575928 -3157.938477 2031.267944 179 175 148
-2903.649170 -3157.938477 2031.267944 191 189 172
-2889.722412 -3157.938477 2031.267944 201 202 196
-2875.795654 -3157.938477 2031.267944 202 206 207
-2861.868652 -3157.938477 2031.267944 154 159 164
-2847.941895 -3157.938477 2031.267944 161 165 169
-2834.015137 -3157.938477 2031.267944 174 178 183
-2820.088379 -3157.938477 2031.267944 146 150 155
-2806.161377 -3157.938477 2031.267944 181 185 189
-2792.234619 -3157.938477 2031.267944 189 193 198
-2778.307861 -3157.938477 2031.267944 137 141 144
-2764.381104 -3157.938477 2031.267944 138 141 144
-2750.454102 -3157.938477 2031.267944 171 175 179
-2736.527344 -3157.938477 2031.267944 171 175 178
-2722.600586 -3157.938477 2031.267944 102 106 108
-2708.673828 -3157.938477 2031.267944 80 84 84
-2652.966553 -3157.938477 2031.267944 220 225 229
-2639.039551 -3157.938477 2031.267944 220 225 229
-2625.112793 -3157.938477 2031.267944 219 224 228
-2611.186035 -3157.938477 2031.267944 219 223 228
-2931.502930 -3144.011719 2031.267944 167 163 137
-2917.575928 -3144.011719 2031.267944 185 178 161
-2903.649170 -3144.011719 2031.267944 184 183 183
-2889.722412 -3144.011719 2031.267944 162 166 172
-2875.795654 -3144.011719 2031.267944 176 181 186
-2861.868652 -3144.011719 2031.267944 153 158 164
-2847.941895 -3144.011719 2031.267944 172 176 181
-2834.015137 -3144.011719 2031.267944 142 145 152
-2820.088379 -3144.011719 2031.267944 135 137 146
-2806.161377 -3144.011719 2031.267944 166 171 178
-2792.234619 -3144.011719 2031.267944 135 141 147
-2778.307861 -3144.011719 2031.267944 120 125 130
-2764.381104 -3144.011719 2031.267944 178 182 185
-2750.454102 -3144.011719 2031.267944 205 208 213
-2736.527344 -3144.011719 2031.267944 182 186 191
-2722.600586 -3144.011719 2031.267944 132 136 140
-2708.673828 -3144.011719 2031.267944 142 146 150
-2694.746826 -3144.011719 2031.267944 175 179 184
-2652.966553 -3144.011719 2031.267944 219 224 229
-2639.039551 -3144.011719 2031.267944 220 225 229
-2625.112793 -3144.011719 2031.267944 220 225 229
-2611.186035 -3144.011719 2031.267944 220 225 229
-2931.502930 -3130.084961 2031.267944 170 166 144
-2917.575928 -3130.084961 2031.267944 177 165 151
-2903.649170 -3130.084961 2031.267944 185 178 180
-2889.722412 -3130.084961 2031.267944 176 179 186
-2875.795654 -3130.084961 2031.267944 151 156 165
-2861.868652 -3130.084961 2031.267944 148 152 161
-2847.941895 -3130.084961 2031.267944 161 165 172
-2834.015137 -3130.084961 2031.267944 144 148 156
-2820.088379 -3130.084961 2031.267944 183 186 193
-2806.161377 -3130.084961 2031.267944 177 180 186
-2792.234619 -3130.084961 2031.267944 126 130 137
-2778.307861 -3130.084961 2031.267944 136 139 147
-2764.381104 -3130.084961 2031.267944 172 175 181
-2750.454102 -3130.084961 2031.267944 144 147 153
-2736.527344 -3130.084961 2031.267944 106 109 114
-2722.600586 -3130.084961 2031.267944 98 102 107
-2708.673828 -3130.084961 2031.267944 155 158 164
-2694.746826 -3130.084961 2031.267944 208 212 216
-2680.820068 -3130.084961 2031.267944 207 211 217
-2666.893311 -3130.084961 2031.267944 196 200 206
-2652.966553 -3130.084961 2031.267944 184 190 196
-2639.039551 -3130.084961 2031.267944 196 201 207
-2625.112793 -3130.084961 2031.267944 217 222 225
-2611.186035 -3130.084961 2031.267944 221 226 229
-2931.502930 -3116.157959 2031.267944 168 164 146
-2917.575928 -3116.157959 2031.267944 174 166 151
-2903.649170 -3116.157959 2031.267944 190 181 179
-2889.722412 -3116.157959 2031.267944 186 186 193
-2875.795654 -3116.157959 2031.267944 150 155 165
-2861.868652 -3116.157959 2031.267944 173 177 185
-2847.941895 -3116.157959 2031.267944 146 150 158
-2834.015137 -3116.157959 2031.267944 144 148 156
-2820.088379 -3116.157959 2031.267944 165 168 175
-2806.161377 -3116.157959 2031.267944 135 137 144
-2792.234619 -3116.157959 2031.267944 146 150 156
-2778.307861 -3116.157959 2031.267944 197 201 205
-2764.381104 -3116.157959 2031.267944 199 203 208
-2750.454102 -3116.157959 2031.267944 142 146 150
-2736.527344 -3116.157959 2031.267944 107 111 114
-2722.600586 -3116.157959 2031.267944 119 123 128
-2708.673828 -3116.157959 2031.267944 153 157 165
-2694.746826 -3116.157959 2031.267944 173 177 185
-2680.820068 -3116.157959 2031.267944 130 133 142
-2666.893311 -3116.157959 2031.267944 105 108 115
-2652.966553 -3116.157959 2031.267944 90 95 102
-2639.039551 -3116.157959 2031.267944 114 120 130
-2625.112793 -3116.157959 2031.267944 186 191 197
-2611.186035 -3116.157959 2031.267944 219 224 226
-2931.502930 -3102.231201 2031.267944 171 168 154
-2917.575928 -3102.231201 2031.267944 180 177 162
-2903.649170 -3102.231201 2031.267944 188 181 177
-2889.722412 -3102.231201 2031.267944 186 185 191
-2875.795654 -3102.231201 2031.267944 167 170 180
-2861.868652 -3102.231201 2031.267944 154 158 169
-2847.941895 -3102.231201 2031.267944 138 142 152
-2834.015137 -3102.231201 2031.267944 182 185 193
-2820.088379 -3102.231201 2031.267944 164 167 175
-2806.161377 -3102.231201 2031.267944 126 129 138
-2792.234619 -3102.231201 2031.267944 152 156 162
-2778.307861 -3102.231201 2031.267944 173 178 180
-2764.381104 -3102.231201 2031.267944 139 144 146
-2750.454102 -3102.231201 2031.267944 118 122 126
-2736.527344 -3102.231201 2031.267944 154 159 163
-2722.600586 -3102.231201 2031.267944 200 206 209
-2708.673828 -3102.231201 2031.267944 211 216 220
-2694.746826 -3102.231201 2031.267944 191 196 200
-2680.820068 -3102.231201 2031.267944 112 117 122
-2666.893311 -3102.231201 2031.267944 74 78 81
-2652.966553 -3102.231201 2031.267944 72 78 82
-2639.039551 -3102.231201 2031.267944 80 86 96
-2625.112793 -3102.231201 2031.267944 133 138 150
-2611.186035 -3102.231201 2031.267944 204 210 216
-2931.502930 -3088.304443 2031.267944 180 179 169
-2917.575928 -3088.304443 2031.267944 187 185 175
-2903.649170 -3088.304443 2031.267944 190 188 182
-2889.722412 -3088.304443 2031.267944 204 202 205
-2875.795654 -3088.304443 2031.267944 194 196 203
-2861.868652 -3088.304443 2031.267944 151 155 165
-2847.941895 -3088.304443 2031.267944 160 163 173
-2834.015137 -3088.304443 2031.267944 164 167 175
-2820.088379 -3088.304443 2031.267944 127 130 139
-2806.161377 -3088.304443 2031.267944 158 162 169
-2792.234619 -3088.304443 2031.267944 202 206 210
-2778.307861 -3088.304443 2031.267944 173 179 182
-2764.381104 -3088.304443 2031.267944 105 111 115
-2750.454102 -3088.304443 2031.267944 95 101 108
-2736.527344 -3088.304443 2031.267944 138 145 151
-2722.600586 -3088.304443 2031.267944 190 195 199
-2708.673828 -3088.304443 2031.267944 184 188 191
-2694.746826 -3088.304443 2031.267944 171 175 178
-2680.820068 -3088.304443 2031.267944 134 140 145
-2666.893311 -3088.304443 2031.267944 126 132 139
-2652.966553 -3088.304443 2031.267944 150 156 163
-2639.039551 -3088.304443 2031.267944 162 168 177
-2625.112793 -3088.304443 2031.267944 178 185 195
-2611.186035 -3088.304443 2031.267944 207 214 223
-2931.502930 -3074.377686 2031.267944 183 183 177
-2917.575928 -3074.377686 2031.267944 188 188 180
-2903.649170 -3074.377686 2031.267944 192 192 186
-2889.722412 -3074.377686 2031.267944 202 201 201
-2875.795654 -3074.377686 2031.267944 183 185 193
-2861.868652 -3074.377686 2031.267944 148 151 161
-2847.941895 -3074.377686 2031.267944 177 180 187
-2834.015137 -3074.377686 2031.267944 156 160 168
-2820.088379 -3074.377686 2031.267944 136 141 150
-2806.161377 -3074.377686 2031.267944 168 172 180
-2792.234619 -3074.377686 2031.267944 167 171 178
-2778.307861 -3074.377686 2031.267944 136 140 146
-2764.381104 -3074.377686 2031.267944 133 138 146
-2750.454102 -3074.377686 2031.267944 173 178 186
-2736.527344 -3074.377686 2031.267944 191 197 203
-2722.600586 -3074.377686 2031.267944 169 175 179
-2708.673828 -3074.377686 2031.267944 104 108 111
-2694.746826 -3074.377686 2031.267944 85 89 92
-2680.820068 -3074.377686 2031.267944 81 88 93
-2666.893311 -3074.377686 2031.267944 126 133 140
-2652.966553 -3074.377686 2031.267944 197 203 208
-2639.039551 -3074.377686 2031.267944 216 222 227
-2625.112793 -3074.377686 2031.267944 216 222 229
-2611.186035 -3074.377686 2031.267944 214 221 229
-2931.502930 -3060.450928 2031.267944 183 185 181
-2917.575928 -3060.450928 2031.267944 189 190 185
-2903.649170 -3060.450928 2031.267944 193 194 189
-2889.722412 -3060.450928 2031.267944 198 197 195
-2875.795654 -3060.450928 2031.267944 205 205 210
-2861.868652 -3060.450928 2031.267944 198 200 207
-2847.941895 -3060.450928 2031.267944 164 168 175
-2834.015137 -3060.450928 2031.267944 123 128 136
-2820.088379 -3060.450928 2031.267944 164 169 177
-2806.161377 -3060.450928 2031.267944 196 200 205
-2792.234619 -3060.450928 2031.267944 145 151 157
-2778.307861 -3060.450928 2031.267944 97 103 111
-2764.381104 -3060.450928 2031.267944 120 124 132
-2750.454102 -3060.450928 2031.267944 186 191 195
-2736.527344 -3060.450928 2031.267944 201 206 208
-2722.600586 -3060.450928 2031.267944 181 186 188
-2708.673828 -3060.450928 2031.267944 117 122 126
-2694.746826 -3060.450928 2031.267944 94 99 106
-2680.820068 -3060.450928 2031.267944 97 103 112
-2666.893311 -3060.450928 2031.267944 112 119 129
-2652.966553 -3060.450928 2031.267944 172 179 184
-2639.039551 -3060.450928 2031.267944 195 201 203
-2625.112793 -3060.450928 2031.267944 185 190 192
-2611.186035 -3060.450928 2031.267944 178 184 187
-2931.502930 -3046.523926 2031.267944 181 184 180
-2917.575928 -3046.523926 2031.267944 189 191 186
-2903.649170 -3046.523926 2031.267944 192 193 188
-2889.722412 -3046.523926 2031.267944 192 193 189
-2875.795654 -3046.523926 2031.267944 202 201 204
-2861.868652 -3046.523926 2031.267944 190 194 199
-2847.941895 -3046.523926 2031.267944 140 145 151
-2834.015137 -3046.523926 2031.267944 155 160 166
-2820.088379 -3046.523926 2031.267944 180 185 192
-2806.161377 -3046.523926 2031.267944 148 152 160
-2792.234619 -3046.523926 2031.267944 126 130 137
-2778.307861 -3046.523926 2031.267944 152 157 165
-2764.381104 -3046.523926 2031.267944 180 186 192
-2750.454102 -3046.523926 2031.267944 177 184 186
-2736.527344 -3046.523926 2031.267944 127 132 132
-2722.600586 -3046.523926 2031.267944 109 112 114
-2708.673828 -3046.523926 2031.267944 108 112 118
-2694.746826 -3046.523926 2031.267944 157 162 169
-2680.820068 -3046.523926 2031.267944 190 195 202
-2666.893311 -3046.523926 2031.267944 194 200 207
-2652.966553 -3046.523926 2031.267944 199 206 210
-2639.039551 -3046.523926 2031.267944 158 165 165
-2625.112793 -3046.523926 2031.267944 98 104 102
-2611.186035 -3046.523926 2031.267944 85 89 89
-2931.502930 -3032.597168 2031.267944 178 181 179
-2917.575928 -3032.597168 2031.267944 184 187 182
-2903.649170 -3032.597168 2031.267944 189 190 185
-2889.722412 -3032.597168 2031.267944 192 193 190
-2875.795654 -3032.597168 2031.267944 194 194 196
-2861.868652 -3032.597168 2031.267944 188 192 197
-2847.941895 -3032.597168 2031.267944 148 153 163
-2834.015137 -3032.597168 2031.267944 171 176 183
-2820.088379 -3032.597168 2031.267944 177 182 186
-2806.161377 -3032.597168 2031.267944 131 137 144
-2792.234619 -3032.597168 2031.267944 119 124 136
-2778.307861 -3032.597168 2031.267944 164 169 179
-2764.381104 -3032.597168 2031.267944 200 205 210
-2750.454102 -3032.597168 2031.267944 187 192 195
-2736.527344 -3032.597168 2031.267944 120 127 131
-2722.600586 -3032.597168 2031.267944 84 90 97
-2708.673828 -3032.597168 2031.267944 86 92 100
-2694.746826 -3032.597168 2031.267944 134 140 149
-2680.820068 -3032.597168 2031.267944 202 207 213
-2666.893311 -3032.597168 2031.267944 215 220 223
-2652.966553 -3032.597168 2031.267944 215 220 223
-2639.039551 -3032.597168 2031.267944 191 197 199
-2625.112793 -3032.597168 2031.267944 112 118 120
-2611.186035 -3032.597168 2031.267944 65 70 73
-2931.502930 -3018.670410 2031.267944 182 185 186
-2917.575928 -3018.670410 2031.267944 184 187 185
-2903.649170 -3018.670410 2031.267944 188 190 187
-2889.722412 -3018.670410 2031.267944 194 196 193
205.413971 215.619308 -145.090561 192 193 194
204.419189 215.619308 -145.090561 203 205 209
203.424423 215.619308 -145.090561 207 212 217
202.429657 215.619308 -145.090561 186 192 198
201.434875 215.619308 -145.090561 125 133 140
-2806.161377 -3018.670410 2031.267944 120 126 134
-2792.234619 -3018.670410 2031.267944 177 184 191
-2778.307861 -3018.670410 2031.267944 193 200 207
-2764.381104 -3018.670410 2031.267944 151 158 162
-2750.454102 -3018.670410 2031.267944 115 121 124
-2736.527344 -3018.670410 2031.267944 111 116 121
-2722.600586 -3018.670410 2031.267944 145 153 160
-2708.673828 -3018.670410 2031.267944 164 172 182
-2694.746826 -3018.670410 2031.267944 169 177 189
-2680.820068 -3018.670410 2031.267944 180 187 195
-2666.893311 -3018.670410 2031.267944 152 157 162
-2652.966553 -3018.670410 2031.267944 149 153 156
-2639.039551 -3018.670410 2031.267944 151 156 159
-2625.112793 -3018.670410 2031.267944 128 134 139
-2611.186035 -3018.670410 2031.267944 109 114 124
-2931.502930 -3004.743652 2031.267944 180 185 187
208.398285 214.624542 -145.090561 185 188 189
207.403519 214.624542 -145.090561 188 191 191
206.408737 214.624542 -145.090561 193 195 195
205.413971 214.624542 -145.090561 193 194 196
204.419189 214.624542 -145.090561 198 200 204
203.424423 214.624542 -145.090561 200 204 209
202.429657 214.624542 -145.090561 151 158 165
201.434875 214.624542 -145.090561 128 137 145
200.440109 214.624542 -145.090561 148 155 166
-2792.234619 -3004.743652 2031.267944 181 187 195
-2778.307861 -3004.743652 2031.267944 182 188 191
-2764.381104 -3004.743652 2031.267944 142 149 153
-2750.454102 -3004.743652 2031.267944 93 101 109
-2736.527344 -3004.743652 2031.267944 90 97 109
-2722.600586 -3004.743652 2031.267944 146 153 162
-2708.673828 -3004.743652 2031.267944 205 213 219
-2694.746826 -3004.743652 2031.267944 211 220 226
-2680.820068 -3004.743652 2031.267944 193 201 206
-2666.893311 -3004.743652 2031.267944 114 122 125
-2652.966553 -3004.743652 2031.267944 69 77 78
-2639.039551 -3004.743652 2031.267944 68 76 77
-2625.112793 -3004.743652 2031.267944 71 77 84
-2611.186035 -3004.743652 2031.267944 109 115 127
209.393051 213.629761 -145.090561 175 181 183
208.398285 213.629761 -145.090561 180 185 186
207.403519 213.629761 -145.090561 183 188 188
206.408737 213.629761 -145.090561 186 190 189
205.413971 213.629761 -145.090561 189 191 190
204.419189 213.629761 -145.090561 189 190 192
203.424423 213.629761 -145.090561 193 197 203
202.429657 213.629761 -145.090561 138 146 160
201.434875 213.629761 -145.090561 135 143 157
200.440109 213.629761 -145.090561 195 203 209
-2792.234619 -2990.816650 2031.267944 185 193 198
-2778.307861 -2990.816650 2031.267944 116 124 130
-2764.381104 -2990.816650 2031.267944 101 108 114
-2750.454102 -2990.816650 2031.267944 140 147 158
-2736.527344 -2990.816650 2031.267944 169 178 190
-2722.600586 -2990.816650 2031.267944 175 184 196
-2708.673828 -2990.816650 2031.267944 176 185 192
-2694.746826 -2990.816650 2031.267944 164 171 176
-2680.820068 -2990.816650 2031.267944 170 176 180
-2666.893311 -2990.816650 2031.267944 137 145 150
-2652.966553 -2990.816650 2031.267944 84 94 103
-2639.039551 -2990.816650 2031.267944 77 85 97
-2625.112793 -2990.816650 2031.267944 70 78 89
-2611.186035 -2990.816650 2031.267944 73 80 94
209.393051 212.634995 -145.090561 172 181 183
208.398285 212.634995 -145.090561 177 182 183
207.403519 212.634995 -145.090561 178 184 184
206.408737 212.634995 -145.090561 181 186 184
205.413971 212.634995 -145.090561 185 188 187
204.419189 212.634995 -145.090561 187 189 190
203.424423 212.634995 -145.090561 201 205 210
202.429657 212.634995 -145.090561 198 206 215
201.434875 212.634995 -145.090561 191 201 211
200.440109 212.634995 -145.090561 210 218 224
199.445328 212.634995 -145.090561 207 214 219
-2778.307861 -2976.889893 2031.267944 149 158 170
-2764.381104 -2976.889893 2031.267944 113 122 139
-2750.454102 -2976.889893 2031.267944 144 151 166
-2736.527344 -2976.889893 2031.267944 205 212 218
-2722.600586 -2976.889893 2031.267944 214 222 226
-2708.673828 -2976.889893 2031.267944 173 182 186
-2694.746826 -2976.889893 2031.267944 95 104 109
-2680.820068 -2976.889893 2031.267944 80 88 91
-2666.893311 -2976.889893 2031.267944 83 90 96
-2652.966553 -2976.889893 2031.267944 111 119 130
-2639.039551 -2976.889893 2031.267944 159 168 182
-2625.112793 -2976.889893 2031.267944 157 167 184
-2611.186035 -2976.889893 2031.267944 140 150 169
209.393051 211.640228 -145.090561 173 182 187
208.398285 211.640228 -145.090561 174 181 184
207.403519 211.640228 -145.090561 172 180 180
206.408737 211.640228 -145.090561 175 181 179
205.413971 211.640228 -145.090561 184 188 187
204.419189 211.640228 -145.090561 185 189 187
203.424423 211.640228 -145.090561 196 200 200
202.429657 211.640228 -145.090561 209 216 219
201.434875 211.640228 -145.090561 214 222 225
200.440109 211.640228 -145.090561 217 225 229
199.445328 211.640228 -145.090561 217 224 230
198.450562 211.640228 -145.090561 209 216 224
-2764.381104 -2962.963135 2031.267944 197 206 217
-2750.454102 -2962.963135 2031.267944 195 203 216
-2736.527344 -2962.963135 2031.267944 212 220 227
-2722.600586 -2962.963135 2031.267944 218 225 230
-2708.673828 -2962.963135 2031.267944 205 212 217
-2694.746826 -2962.963135 2031.267944 134 144 153
-2680.820068 -2962.963135 2031.267944 80 92 104
-2666.893311 -2962.963135 2031.267944 68 78 91
-2652.966553 -2962.963135 2031.267944 81 89 104
-2639.039551 -2962.963135 2031.267944 156 165 176
-2625.112793 -2962.963135 2031.267944 206 215 225
-2611.186035 -2962.963135 2031.267944 207 216 227
209.393051 210.645447 -145.090561 173 183 188
208.398285 210.645447 -145.090561 176 184 188
207.403519 210.645447 -145.090561 174 182 184
206.408737 210.645447 -145.090561 174 181 181
205.413971 210.645447 -145.090561 181 187 186
204.419189 210.645447 -145.090561 183 186 186
203.424423 210.645447 -145.090561 181 185 184
202.429657 210.645447 -145.090561 187 192 192
201.434875 210.645447 -145.090561 196 202 204
200.440109 210.645447 -145.090561 210 218 220
199.445328 210.645447 -145.090561 216 224 226
198.450562 210.645447 -145.090561 217 224 228
197.455780 210.645447 -145.090561 217 224 229
-2750.454102 -2949.036377 2031.267944 217 225 230
-2736.527344 -2949.036377 2031.267944 218 225 230
-2722.600586 -2949.036377 2031.267944 218 225 231
-2708.673828 -2949.036377 2031.267944 215 223 229
-2694.746826 -2949.036377 2031.267944 197 207 217
-2680.820068 -2949.036377 2031.267944 171 182 199
-2666.893311 -2949.036377 2031.267944 150 161 181
-2652.966553 -2949.036377 2031.267944 127 137 160
-2639.039551 -2949.036377 2031.267944 140 150 170
-2625.112793 -2949.036377 2031.267944 197 206 218
-2611.186035 -2949.036377 2031.267944 212 220 229
209.393051 209.650681 -145.090561 168 178 183
208.398285 209.650681 -145.090561 175 185 187
207.403519 209.650681 -145.090561 174 184 185
206.408737 209.650681 -145.090561 173 181 182
205.413971 209.650681 -145.090561 176 182 180
204.419189 209.650681 -145.090561 181 186 185
203.424423 209.650681 -145.090561 178 183 185
202.429657 209.650681 -145.090561 177 182 184
201.434875 209.650681 -145.090561 182 187 187
200.440109 209.650681 -145.090561 193 198 197
199.445328 209.650681 -145.090561 199 205 203
198.450562 209.650681 -145.090561 205 212 212
197.455780 209.650681 -145.090561 210 217 220
196.461014 209.650681 -145.090561 214 222 224
-2736.527344 -2935.109375 2031.267944 216 224 227
-2722.600586 -2935.109375 2031.267944 217 224 230
-2708.673828 -2935.109375 2031.267944 216 224 231
-2694.746826 -2935.109375 2031.267944 213 223 231
-2680.820068 -2935.109375 2031.267944 211 221 231
-2666.893311 -2935.109375 2031.267944 210 219 229
-2652.966553 -2935.109375 2031.267944 204 214 225
-2639.039551 -2935.109375 2031.267944 198 208 222
-2625.112793 -2935.109375 2031.267944 207 216 228
-2611.186035 -2935.109375 2031.267944 212 220 229
